<svg width="59" height="54" viewBox="0 0 59 54" fill="none" xmlns="http://www.w3.org/2000/svg">
<path fill-rule="evenodd" clip-rule="evenodd" d="M53.6319 23.356C54.9705 22.5734 56.1081 21.4893 56.9542 20.1899C57.8002 18.8905 58.3314 17.4116 58.5056 15.8708C58.8997 12.8419 58.3377 9.76542 56.8981 7.07142C55.6037 4.5724 53.5571 2.54295 51.0473 1.26947C48.4789 -0.00292908 45.5448 -0.331536 42.7585 0.341161C40.47 0.853561 38.2747 1.71718 36.2505 2.90135C34.849 3.74718 33.6172 4.84649 32.6179 6.14311C31.6048 7.63386 30.8997 9.31195 30.544 11.0789C30.1883 12.8459 30.189 14.6661 30.5463 16.4327C30.8119 18.2054 31.4651 19.8978 32.4596 21.3892C33.454 22.8806 34.765 24.1343 36.2994 25.0611C37.9878 25.9394 39.8565 26.4152 41.7593 26.4511C44.4661 26.4707 47.1631 26.0847 49.755 25.303C49.8753 25.2672 49.9828 25.1978 50.065 25.1031C50.1472 25.0083 50.2007 24.8921 50.2192 24.768C50.597 25.6523 51.0196 26.5138 51.4871 27.3526C51.7265 27.7614 51.9944 28.1522 52.2908 28.5252C52.5822 28.9049 52.892 29.2702 53.2191 29.6196C53.9959 30.4502 54.8265 31.2051 55.6547 32.0577C55.7275 32.1326 55.8147 32.1922 55.911 32.2329C56.0073 32.2736 56.1108 32.2946 56.2153 32.2946C56.3199 32.2946 56.4234 32.2736 56.5197 32.2329C56.616 32.1922 56.7031 32.1326 56.776 32.0577C56.92 31.9114 57.0007 31.7144 57.0007 31.5092C57.0007 31.304 56.92 31.107 56.776 30.9608C56.1897 30.008 55.6767 29.0358 55.0953 28.1074C54.8456 27.7046 54.5766 27.3141 54.2891 26.9373C54.0227 26.551 53.7288 26.1844 53.4096 25.8404C52.8502 25.2297 52.2664 24.6947 51.6801 24.1352H51.9732C52.5562 23.9382 53.1092 23.68 53.6319 23.356ZM41.8082 24.7411C40.1934 24.6588 38.6218 24.1905 37.2253 23.3755C36.0033 22.5522 34.9771 21.4707 34.219 20.2073C33.4608 18.9439 32.9893 17.5294 32.8378 16.0638C32.3295 13.1568 32.9955 10.167 34.6895 7.75055C35.7205 6.46046 37.0289 5.41924 38.5176 4.70422C40.0662 3.92424 41.7034 3.33446 43.3937 2.94776C45.5917 2.38072 47.9187 2.59665 49.9749 3.55849C52.0305 4.57487 53.7304 6.18958 54.851 8.19028C56.1705 10.4416 56.7498 13.0503 56.5073 15.6485C56.4012 16.9165 56.0053 18.1431 55.3501 19.2338C54.6948 20.3245 53.7977 21.25 52.7281 21.9391C52.2294 22.2416 51.6984 22.4875 51.1451 22.6719C48.2429 23.5709 47.7323 25.2297 41.686 24.7411H41.8082Z" fill="#0084FF"/>
<path fill-rule="evenodd" clip-rule="evenodd" d="M46.8064 31.2051C46.3295 31.4192 45.8145 31.5355 45.2918 31.5471C43.8798 31.8158 42.1502 31.8158 40.1495 31.8158H34.8117C32.8622 31.9868 31.0813 32.1554 29.7402 32.3264V31.3492C29.6 30.498 29.2278 29.7019 28.6645 29.0485C28.1012 28.3951 27.3686 27.9097 26.5473 27.6457C25.7121 27.4029 24.8225 27.4222 23.9986 27.7009C23.1747 27.9796 22.4562 28.5043 21.9399 29.2043C21.2144 30.1033 20.7502 31.1831 20.5987 32.3264V32.6928C18.6249 32.5462 14.2374 32.3508 10.3385 31.9111C8.97078 31.7711 7.61144 31.5591 6.2661 31.2759C5.54868 31.1715 4.8598 30.923 4.24092 30.5455C3.14525 29.5647 2.45816 28.2079 2.31589 26.7443C2.08351 24.2033 2.12446 21.6448 2.43804 19.1126C2.46501 19.0002 2.46501 18.883 2.43804 18.7706C5.60651 19.0149 8.75056 19.2836 11.9459 19.3569H17.9189C20.9163 19.3569 23.8894 19.137 26.8648 19.1126C26.9695 19.1192 27.0744 19.1046 27.1734 19.0699C27.2723 19.0351 27.3632 18.9807 27.4407 18.9101C27.5182 18.8394 27.5807 18.7539 27.6245 18.6586C27.6682 18.5632 27.6924 18.4601 27.6954 18.3553C27.7029 18.2402 27.6847 18.125 27.6424 18.0177C27.6 17.9105 27.5345 17.814 27.4504 17.7351C27.3664 17.6561 27.2659 17.5968 27.1562 17.5613C27.0465 17.5257 26.9303 17.5149 26.816 17.5296C23.9155 17.1932 21.0042 16.9569 18.0874 16.8211H15.432C15.5655 15.7479 15.7854 14.6917 16.0915 13.6526C16.221 13.0199 16.5655 12.4532 17.0638 12.0428C17.5768 11.6983 18.1607 11.4662 18.7714 11.3587C19.5092 11.1763 20.2567 11.0469 21.014 10.9703C22.6361 10.7993 24.2615 10.726 25.8901 10.7504C25.998 10.771 26.1091 10.7687 26.216 10.7435C26.3229 10.7183 26.4234 10.6708 26.5107 10.6042C26.5981 10.5376 26.6704 10.4533 26.723 10.3569C26.7756 10.2604 26.8073 10.154 26.816 10.0444C26.8299 9.83183 26.7617 9.62198 26.6253 9.45829C26.4888 9.29461 26.2948 9.1896 26.0831 9.16499C24.0609 8.76355 22.0032 8.56793 19.9416 8.58113C18.3457 8.61273 16.7944 9.11314 15.4808 10.02C14.803 10.6793 14.3428 11.53 14.1616 12.4581C13.9163 13.9071 13.8589 15.3818 13.9906 16.8455H10.6805C7.68056 16.9188 4.87852 17.1876 1.87861 17.3341C0.879453 17.3341 0 25.0122 0 26.9373C0.0708448 29.0211 0.945412 30.995 2.43804 32.4485C4.19168 33.5593 6.21367 34.1739 8.28884 34.227C12.3506 34.4322 16.414 34.4322 20.479 34.227C20.479 35.1064 20.6256 35.9834 20.7478 36.665C20.7719 36.8454 20.8623 37.0104 21.0014 37.1278C21.1405 37.2452 21.3183 37.3066 21.5002 37.3002C21.6595 37.285 21.8089 37.2164 21.9243 37.1055C22.0396 36.9947 22.114 36.848 22.1353 36.6894C22.0329 35.3431 22.1234 33.9891 22.4041 32.6684C22.6093 31.9135 23.0026 31.227 23.5498 30.6676C23.8251 30.3926 24.1737 30.2026 24.554 30.1203C24.9343 30.038 25.3303 30.0669 25.6947 30.2035C26.0573 30.3323 26.3781 30.5571 26.6229 30.854C26.8677 31.1508 27.0273 31.5086 27.0847 31.8891C27.0847 32.3019 27.2069 32.7636 27.2557 33.2278V33.6431C27.329 34.3418 27.329 35.0404 27.2557 35.7391C27.1758 36.5227 26.9076 37.2753 26.474 37.9329C26.0974 38.403 25.6231 38.7856 25.084 39.0542C24.8791 39.192 24.6464 39.2832 24.4024 39.3211C24.1584 39.3591 23.909 39.3431 23.6719 39.274C23.5102 39.202 23.374 39.0828 23.2811 38.932C23.1345 38.6877 23.0124 38.419 22.8902 38.1747C22.7996 37.9871 22.6398 37.8418 22.4444 37.7694C22.249 37.697 22.0332 37.703 21.8422 37.7863C21.7442 37.8256 21.6556 37.8849 21.5819 37.9605C21.5082 38.036 21.4512 38.1262 21.4144 38.2251C21.3776 38.324 21.3619 38.4295 21.3682 38.5348C21.3746 38.6401 21.4029 38.743 21.4513 38.8368C21.5979 39.2407 21.777 39.6299 21.9888 40.0045C22.2037 40.3204 22.4725 40.581 22.7949 40.7862C23.1636 40.9886 23.5693 41.1146 23.9878 41.1566C24.4063 41.1986 24.829 41.1557 25.2305 41.0305C26.3225 40.7129 27.307 40.1046 28.0839 39.2716C28.8216 38.3946 29.3298 37.349 29.5716 36.2253C29.7141 35.5598 29.7959 34.8828 29.8159 34.2025C31.1546 34.2025 32.9355 34.4468 34.9094 34.4712C36.4704 34.4712 38.1023 34.4712 39.6633 34.3002C42.4763 34.2504 45.2453 33.5937 47.7812 32.3752C47.9203 32.226 47.9976 32.0296 47.9976 31.8256C47.9976 31.6216 47.9203 31.4251 47.7812 31.2759C47.649 31.158 47.4816 31.087 47.305 31.0737C47.1284 31.0605 46.9523 31.1058 46.804 31.2026" fill="black"/>
<path fill-rule="evenodd" clip-rule="evenodd" d="M46.1469 34.8866C46.0424 34.88 45.9377 34.8944 45.8389 34.929C45.7402 34.9637 45.6493 35.0178 45.5719 35.0882C45.4944 35.1586 45.4319 35.2439 45.388 35.3389C45.3441 35.4339 45.3197 35.5368 45.3163 35.6414L44.8057 45.6354C44.8383 46.6207 44.7569 47.5963 44.5614 48.562C44.471 49.0505 44.2231 49.4958 43.8554 49.8299C43.0457 50.404 42.1083 50.7721 41.1243 50.9024C39.4354 51.1467 37.7375 51.2769 36.0308 51.2932H29.4007C24.1581 51.1222 18.9425 50.7558 13.7 50.7314C11.6461 50.8681 9.58545 50.8681 7.53159 50.7314C6.35998 50.7017 5.23017 50.29 4.31426 49.5588C4.00031 49.215 3.80357 48.7805 3.75239 48.3178C3.65463 47.3773 3.65463 46.4293 3.75239 45.4888V38.1772C3.75239 37.1756 3.75239 36.1544 3.87453 35.1284C3.88265 34.992 3.85118 34.8563 3.78391 34.7374C3.71664 34.6185 3.61643 34.5216 3.49536 34.4584C3.37429 34.3951 3.23752 34.3682 3.10152 34.3809C2.96552 34.3936 2.83608 34.4453 2.7288 34.5299C2.65786 34.5891 2.59964 34.662 2.55765 34.7443C2.51567 34.8266 2.49078 34.9165 2.48451 35.0087C2.36236 36.0567 2.29152 37.1047 2.24266 38.1283C2.12051 40.5664 2.09609 43.0044 1.94951 45.4424C1.86375 46.4968 1.86375 47.5565 1.94951 48.6109C2.00325 49.5123 2.35504 50.3698 2.95111 51.0489C3.85032 51.9558 4.99345 52.5821 6.24173 52.8518C8.75316 53.2765 11.3008 53.4484 13.8466 53.3648C19.0646 53.3648 24.2803 53.8778 29.4959 54C31.7654 54 34.0324 54 36.3239 53.8778C38.1491 53.8197 39.9668 53.6155 41.7594 53.2671C43.1152 53.0221 44.3887 52.4437 45.4653 51.5839C46.1249 50.9195 46.5646 50.0693 46.7332 49.1459C46.9124 48.0238 46.9775 46.8943 46.9286 45.7576L47.0508 35.8368C47.0973 35.645 47.0695 35.4427 46.973 35.2705C46.8764 35.0983 46.7184 34.969 46.5304 34.9085C46.4071 34.8664 46.2746 34.858 46.1469 34.8841" fill="black"/>
</svg>
